# xmcd
#
# Track frame offsets:
#	150
#	10625
#	28439
#	45951
#	63279
#	80781
#	99712
#	116857
#	138507
#	155717
#	173360
#	192369
#	208906
#	222509
#	236638
#	254029
#	270650
#
# Disc length: 3852 seconds
#
# Revision: 0
# Processed by: cddbd v1.5.1PL2 Copyright (c) Steve Scherf et al.
# Submitted via: EasyCDDAExtractor 9.1.3.1
#
DISCID=000f0a11
DTITLE=Bluespeak - The Lounge Collection
DYEAR=2002
DGENRE=Blues
TTITLE0=Atomic Cocktail
TTITLE1=Late Last Night
TTITLE2=Gently She Breathes
TTITLE3=It's Always Fine Inside
TTITLE4=Beach Ball
TTITLE5=Let It Slide
TTITLE6=Sometimes In The Morning
TTITLE7=I Have To Go
TTITLE8=Girl With The Key
TTITLE9=Drinking Blues
TTITLE10=Slow Dance
TTITLE11=Dream Theme
TTITLE12=Bad Bad Whiskey
TTITLE13=I Belong To The Drinking Set
TTITLE14=Walls Walls Walls
TTITLE15=Spring Is Blue
TTITLE16=I'm Gonna Move To The Outskirts Of Town
EXTD=
EXTT0=
EXTT1=
EXTT2=
EXTT3=
EXTT4=
EXTT5=
EXTT6=
EXTT7=
EXTT8=
EXTT9=
EXTT10=
EXTT11=
EXTT12=
EXTT13=
EXTT14=
EXTT15=
EXTT16=
PLAYORDER=
